<svg width="125" height="48" viewBox="0 0 125 48" fill="none" xmlns="http://www.w3.org/2000/svg">
<rect y="0.75" width="125" height="47" rx="23.5" fill="url(#paint0_linear_730_46464)"/>
<rect x="23" y="0.75" width="79" height="47" rx="23.5" fill="url(#paint1_linear_730_46464)"/>
<rect x="55" y="0.75" width="47" height="47" rx="23.5" fill="url(#paint2_linear_730_46464)"/>
<path d="M78.3035 28.5965C73.5865 28.5965 69.7605 24.771 69.7605 20.0547V29.07C69.7605 33.7863 73.5865 37.6119 78.3035 37.6119C83.0204 37.6119 86.8465 33.7863 86.8465 29.07V20.0547C86.8465 24.771 83.0204 28.5965 78.3035 28.5965Z" fill="#E64E36"/>
<path d="M86.8093 20.8502C87.25 16.1532 83.7992 11.9884 79.1017 11.5477C74.4042 11.1071 70.2388 14.5574 69.798 19.2543C69.3573 23.9512 72.8081 28.116 77.5056 28.5567C82.2032 28.9974 86.3686 25.5471 86.8093 20.8502Z" fill="white"/>
<defs>
<linearGradient id="paint0_linear_730_46464" x1="-32.5" y1="47.75" x2="131.866" y2="47.75" gradientUnits="userSpaceOnUse">
<stop offset="0.185" stop-color="#001647"/>
<stop offset="1" stop-color="#0A4EE4"/>
</linearGradient>
<linearGradient id="paint1_linear_730_46464" x1="108.723" y1="24.75" x2="65.5152" y2="81.5156" gradientUnits="userSpaceOnUse">
<stop stop-color="#0A4EE4"/>
<stop offset="1" stop-color="#001647"/>
</linearGradient>
<linearGradient id="paint2_linear_730_46464" x1="78" y1="-4.25" x2="62.5" y2="58.75" gradientUnits="userSpaceOnUse">
<stop stop-color="#0A4EE4"/>
<stop offset="1" stop-color="#8DD7D7"/>
</linearGradient>
</defs>
</svg>
